# xmcd
#
# Track frame offsets: 
#        183
#        12590
#        31388
#        40453
#        51975
#        65210
#        78288
#        89715
#        98123
#        106898
#        122420
#        137130
#        152703
#        167783
#        183825
#        201993
#        211508
#        218240
#        233625
#        247355
#
# Disc length: 3457 seconds
#
# Revision: 0
# Processed by: cddbd v1.5.1PL0 Copyright (c) Steve Scherf et al.
# Submitted via: ExactAudioCopy v0.95a4
#
DISCID=210d7f14
DTITLE=Various Artist - Western Swing On The Radio
DYEAR=1900
DGENRE=Country
TTITLE0=Cecil Brower and His Kilocycle Cowboys - Draggin' The Bow - Dill
TTITLE0=Pickle Rag
TTITLE1=Cecil Brower and His Kilocycle Cowboys - I'll Step Aside (voc. B
TTITLE1=uster Ferguson)
TTITLE2=Bob Wills and His Texas Playboys - Liberty
TTITLE3=Bob Wills and His Texas Playboys - Home In San Antone (voc. Jack
TTITLE3=Loyd)
TTITLE4=Bob Wills and His Texas Playboys - Summit Ridge Drive
TTITLE5=Wesley Tuttle - Three Way Boogie
TTITLE6=Leon McAuliffe and The Cimarron Boys - Steel Guitar Rag
TTITLE7=Brazos Valley Boys - Silver Bell
TTITLE8=Brazos Valley Boys - In The Mood
TTITLE9=Spade Cooley Band - Texas Playboy Rag
TTITLE10=Spade Cooley Band - Diggin' With Spade (incomplete)
TTITLE11=Hank Penny and His California Cowhands - Panhandle Rag
TTITLE12=Hank Penny and His California Cowhands - Boogie Blues
TTITLE13=Hank Penny and His California Cowhands - Texas Playboy Rag
TTITLE14=Tex Williams and His Western Caravan - Careless Love (voc. Deuc
TTITLE14=e Spriggens)
TTITLE15=Tex Williams and His Western Caravan - Steel Guitar Rag
TTITLE16=Tommy Duncan and The Town Hall Gang - Home In San Antone (voc. 
TTITLE16=Tommy Duncan)
TTITLE17=Porky Freeman and Wade Ray - South
TTITLE18=Tex Williams and His Western Caravan - Corrine Corrina (voc. De
TTITLE18=uce Spriggens)
TTITLE19=Spade Cooley - Riverside Drive
EXTD=
EXTT0=
EXTT1=
EXTT2=
EXTT3=
EXTT4=
EXTT5=
EXTT6=
EXTT7=
EXTT8=
EXTT9=
EXTT10=
EXTT11=
EXTT12=
EXTT13=
EXTT14=
EXTT15=
EXTT16=
EXTT17=
EXTT18=
EXTT19=
PLAYORDER=
